<?xml version="1.0" encoding="UTF-8"?>
<svg width="1200pt" height="1200pt" version="1.1" viewBox="0 0 1200 1200" xmlns="http://www.w3.org/2000/svg">
 <g>
  <path d="m600 23.438c-317.91 0-576.56 258.65-576.56 576.56s258.65 576.56 576.56 576.56 576.56-258.65 576.56-576.56-258.65-576.56-576.56-576.56zm0 1125c-302.41 0-548.44-246.03-548.44-548.44s246.03-548.44 548.44-548.44 548.44 246.03 548.44 548.44-246.03 548.44-548.44 548.44z"/>
  <path d="m722.79 469.04h-245.57c-4.5078 0-8.1758 3.6562-8.1758 8.1758v245.58c0 4.5078 3.6562 8.1758 8.1758 8.1758h245.58c4.5078 0 8.1758-3.6562 8.1758-8.1758v-245.58c-0.007812-4.5195-3.6641-8.1758-8.1836-8.1758zm-8.168 245.58h-229.23v-229.23h229.24z"/>
  <path d="m534.98 283.93h44.551c10.039 0 18.207 8.1641 18.207 18.207v149.27c0 4.5195 3.6562 8.1758 8.1758 8.1758s8.1758-3.6562 8.1758-8.1758l-0.003906-149.28c0-19.051-15.496-34.547-34.547-34.547h-44.551c-4.5078 0-8.1758 3.6562-8.1758 8.1758-0.007812 4.5156 3.6602 8.1719 8.168 8.1719z"/>
  <path d="m665.02 459.57c4.5078 0 8.1758-3.6562 8.1758-8.1758v-94.562c0-4.5195-3.6562-8.1758-8.1758-8.1758s-8.1758 3.6562-8.1758 8.1758v94.566c0 4.5156 3.668 8.1719 8.1758 8.1719z"/>
  <path d="m538.63 356.83v94.566c0 4.5195 3.6562 8.1758 8.1758 8.1758 4.5195 0 8.1758-3.6562 8.1758-8.1758l-0.003906-94.566c0-4.5195-3.6562-8.1758-8.1758-8.1758-4.5156 0-8.1719 3.6641-8.1719 8.1758z"/>
  <path d="m451.4 585.92h-149.27c-19.039 0-34.547 15.496-34.547 34.547v44.559c0 4.5078 3.6562 8.1758 8.1758 8.1758 4.5078 0 8.1758-3.6562 8.1758-8.1758v-44.559c0-10.031 8.1641-18.207 18.195-18.207h149.27c4.5078 0 8.1758-3.6562 8.1758-8.1758-0.003907-4.5078-3.668-8.1641-8.1758-8.1641z"/>
  <path d="m451.4 526.81h-94.566c-4.5078 0-8.1758 3.6562-8.1758 8.1758s3.6562 8.1758 8.1758 8.1758h94.566c4.5078 0 8.1758-3.6562 8.1758-8.1758-0.003907-4.5195-3.668-8.1758-8.1758-8.1758z"/>
  <path d="m451.4 645.02h-94.566c-4.5078 0-8.1758 3.6562-8.1758 8.1758 0 4.5078 3.6562 8.1758 8.1758 8.1758h94.566c4.5078 0 8.1758-3.6562 8.1758-8.1758-0.003907-4.5117-3.668-8.1758-8.1758-8.1758z"/>
  <path d="m924.24 526.81c-4.5078 0-8.1758 3.6562-8.1758 8.1758v44.551c0 10.031-8.1641 18.207-18.195 18.207h-149.27c-4.5078 0-8.1758 3.6562-8.1758 8.1758s3.6562 8.1758 8.1758 8.1758h149.27c19.039 0 34.547-15.496 34.547-34.547v-44.551c0-4.5312-3.6641-8.1875-8.1758-8.1875z"/>
  <path d="m843.17 656.85h-94.566c-4.5078 0-8.1758 3.6562-8.1758 8.1758 0 4.5078 3.6562 8.1758 8.1758 8.1758h94.566c4.5078 0 8.1758-3.6562 8.1758-8.1758 0-4.5195-3.6641-8.1758-8.1758-8.1758z"/>
  <path d="m748.6 554.98h94.566c4.5078 0 8.1758-3.6562 8.1758-8.1758 0-4.5195-3.6562-8.1758-8.1758-8.1758l-94.566 0.003906c-4.5078 0-8.1758 3.6562-8.1758 8.1758 0.003907 4.5156 3.668 8.1719 8.1758 8.1719z"/>
  <path d="m665.02 916.07h-44.551c-10.039 0-18.207-8.1641-18.207-18.207v-149.26c0-4.5195-3.6562-8.1758-8.1758-8.1758s-8.1758 3.6562-8.1758 8.1758v149.27c0 19.051 15.496 34.547 34.547 34.547h44.551c4.5078 0 8.1758-3.6562 8.1758-8.1758 0.011718-4.5156-3.6562-8.1719-8.1641-8.1719z"/>
  <path d="m534.98 740.43c-4.5078 0-8.1758 3.6562-8.1758 8.1758v94.566c0 4.5078 3.6562 8.1758 8.1758 8.1758s8.1758-3.6562 8.1758-8.1758v-94.57c0-4.5156-3.668-8.1719-8.1758-8.1719z"/>
  <path d="m661.37 843.17v-94.566c0-4.5195-3.6562-8.1758-8.1758-8.1758-4.5195 0-8.1758 3.6562-8.1758 8.1758v94.566c0 4.5078 3.6562 8.1758 8.1758 8.1758 4.5195 0 8.1758-3.6641 8.1758-8.1758z"/>
  <path d="m534.98 673.19h130.03c4.5078 0 8.1758-3.6562 8.1758-8.1758v-130.03c0-4.5195-3.6562-8.1758-8.1758-8.1758h-130.03c-4.5078 0-8.1758 3.6562-8.1758 8.1758v130.03c0 4.5195 3.668 8.1758 8.1758 8.1758zm8.1758-130.04h113.69v113.69h-113.69z"/>
 </g>
</svg>
