<?xml version="1.0" encoding="UTF-8"?>
<svg width="1200pt" height="1200pt" version="1.1" viewBox="0 0 1200 1200" xmlns="http://www.w3.org/2000/svg">
 <g>
  <path d="m610.08 714.24h-17.52v123.72l-88.559 0.003907v193.2h193.2v-193.2h-87.121zm69.602 141.36v158.04h-158.04v-158.04z"/>
  <path d="m1036 694.32v-193.32h-193.2v88.441h-100.8v-105.36l-33.961-0.003906v-90.48h68.52v87.84h193.2v-193.44h-193.2v87.84h-85.559v108h-80.879l-0.003906-129.6h87.238l0.003906-193.2h-193.32v193.2h88.441v129.84h-79.559v-108h-85.559l-0.003907-88.078h-193.2v193.2h193.2v-87.602h68.039v90.48h-34.559v105.48h-102.24l-0.003906-88.559h-193.32v193.2h193.32v-87.121h102.24v105.48h34.559v90.48h-68.039v-87.961h-193.2v193.32h193.2v-87.84h85.559v-108h177.48v108h85.559v87.84h193.8v-193.32h-193.2v87.84l-68.52 0.003906v-90.359h33.961v-105.48h100.8v87.238zm-175.68-175.68h158.16v158.04h-158.16zm-66.242-212.88h158.16v158.16h-158.16zm-272.4 30.957v-158.16h158.04v158.16zm-111.84 127.2h-157.8v-158.16h157.8zm-68.762 212.76h-158.16v-158.04h158.16zm68.762 214.08h-157.8v-158.04h157.8zm384-158.16h158.4v158.16h-158.16zm-69.723-37.68h-245.64v-193.32h245.88z"/>
  <path d="m645.12 589.56h17.52v17.52h-17.52z"/>
  <path d="m592.56 589.56h17.52v17.52h-17.52z"/>
  <path d="m540 589.56h17.52v17.52h-17.52z"/>
 </g>
</svg>
